<svg version="1.1" xmlns="http://www.w3.org/2000/svg" xmlns:xlink="http://www.w3.org/1999/xlink" x="0px" y="0px" viewBox="0 0 300 300" enable-background="new 0 0 300 300" xml:space="preserve" style="width:1em"><g id="ps-plus"><g id="_x33_D_Sides"><linearGradient id="SVGID_1_" gradientUnits="userSpaceOnUse" x1="198.9521" y1="171.8358" x2="282.0508" y2="202.0812"><stop  offset="0" style="stop-color:#D39D04"/><stop  offset="0.4727" style="stop-color:#C06C11"/></linearGradient><path fill="url(#SVGID_1_)" d="M292.72,171.09c-0.26,0.12-0.53,0.23-0.81,0.31c-0.28,0.09-0.56,0.16-0.86,0.22 c-0.3,0.06-0.6,0.1-0.91,0.13l-62.89,5.43l-39.72,26.03l60.57-5.87c0.3-0.03,0.59-0.07,0.88-0.13c0.29-0.06,0.56-0.13,0.83-0.22 c0.27-0.09,0.53-0.19,0.78-0.31c0.25-0.12,0.5-0.25,0.73-0.39c14.05-8.53,28.1-17.06,42.15-25.6 C293.23,170.84,292.98,170.97,292.72,171.09z"/><linearGradient id="SVGID_00000080198043926624858890000011571770311535589504_" gradientUnits="userSpaceOnUse" x1="68.2751" y1="55.8209" x2="124.4048" y2="76.2504"><stop  offset="0" style="stop-color:#D39D04"/><stop  offset="0.4727" style="stop-color:#C06C11"/></linearGradient><path fill="url(#SVGID_00000080198043926624858890000011571770311535589504_)" d="M103.49,18.61c-0.19-0.85-0.28-1.69-0.29-2.49 c0-0.8,0.09-1.57,0.26-2.29c0.17-0.72,0.43-1.4,0.76-2.03c0.33-0.63,0.74-1.21,1.21-1.72C94.54,21.87,83.63,33.65,72.72,45.44 c-0.46,0.5-0.86,1.05-1.18,1.66c-0.32,0.61-0.58,1.26-0.75,1.95c-0.17,0.69-0.27,1.43-0.28,2.19c-0.01,0.76,0.07,1.56,0.25,2.37 l14.52,67.67l34.2-31.5L103.49,18.61z"/><linearGradient id="SVGID_00000076588457442888015610000012763051797232869510_" gradientUnits="userSpaceOnUse" x1="99.0607" y1="226.4537" x2="236.1823" y2="276.3619"><stop  offset="0" style="stop-color:#D39D04"/><stop  offset="0.4727" style="stop-color:#C06C11"/></linearGradient><path fill="url(#SVGID_00000076588457442888015610000012763051797232869510_)" d="M240.12,263.99c-0.23,0.1-0.47,0.18-0.72,0.26 c-0.25,0.08-0.5,0.14-0.75,0.2c-0.26,0.05-0.52,0.1-0.79,0.13l-65.56,8.46c-1.56,0.2-3.12,0.04-4.62-0.42 c-1.5-0.46-2.93-1.23-4.21-2.24c-1.28-1.01-2.42-2.27-3.34-3.71c-0.91-1.44-1.61-3.06-2-4.8l-17.34-77.22l-36.2,26.61l15.68,73.07 c0.35,1.65,0.99,3.17,1.85,4.53c0.86,1.35,1.93,2.53,3.14,3.48c1.21,0.95,2.57,1.66,4,2.09c1.43,0.43,2.92,0.56,4.41,0.36 l62.88-8.6c0.25-0.04,0.51-0.08,0.75-0.14c0.25-0.06,0.49-0.12,0.73-0.2c0.24-0.08,0.47-0.16,0.69-0.25 c0.22-0.09,0.45-0.2,0.66-0.31c13.81-7.21,27.61-14.41,41.41-21.62C240.58,263.78,240.35,263.89,240.12,263.99z"/><linearGradient id="SVGID_00000068656575662422730830000007096253776860552868_" gradientUnits="userSpaceOnUse" x1="3.129" y1="144.8465" x2="137.4796" y2="193.7461"><stop  offset="0" style="stop-color:#D39D04"/><stop  offset="0.4727" style="stop-color:#C06C11"/></linearGradient><path fill="url(#SVGID_00000068656575662422730830000007096253776860552868_)" d="M68.06,190.92c-1.66,0.14-3.32-0.07-4.89-0.59 c-1.58-0.51-3.07-1.32-4.4-2.37c-1.33-1.05-2.49-2.33-3.42-3.78c-0.92-1.45-1.6-3.08-1.95-4.82l-15.09-73.99 c-0.19-0.94-0.27-1.87-0.25-2.76c0.02-0.89,0.15-1.75,0.37-2.56c0.22-0.81,0.53-1.58,0.92-2.28c0.39-0.71,0.87-1.36,1.43-1.94 c-10.23,10.75-20.47,21.49-30.7,32.23c-0.53,0.56-1,1.18-1.38,1.86c-0.38,0.68-0.69,1.41-0.9,2.18c-0.21,0.77-0.34,1.59-0.37,2.43 c-0.03,0.85,0.04,1.72,0.21,2.62l13.66,70.03c0.32,1.64,0.95,3.17,1.81,4.54c0.86,1.37,1.96,2.57,3.21,3.55 c1.25,0.98,2.67,1.73,4.16,2.2c1.49,0.47,3.07,0.66,4.65,0.5l69.46-6.74l36.2-26.61L68.06,190.92z"/></g><linearGradient id="Face_00000176726597168716674200000001409096349270121350_" gradientUnits="userSpaceOnUse" x1="106.0164" y1="230.1714" x2="234.7917" y2="46.2613"><stop  offset="0.1636" style="stop-color:#FBF6C8"/><stop  offset="0.4848" style="stop-color:#FACC00"/></linearGradient><path id="Face_1_" fill="url(#Face_00000176726597168716674200000001409096349270121350_)" d="M297.3,162.01L297.3,162.01l0-0.02 c-0.06-0.73-0.19-1.49-0.4-2.26l-17.34-65.81c-0.2-0.74-0.46-1.47-0.77-2.16l0,0l0-0.01c-0.31-0.69-0.68-1.36-1.09-1.99c-0.82-1.27-1.83-2.4-2.96-3.33c-0.56-0.46-1.14-0.88-1.75-1.24l-0.02-0.01l-0.02-0.01c-0.61-0.36-1.24-0.67-1.88-0.92 c-0.65-0.25-1.31-0.43-1.97-0.55l0,0l0,0c-0.67-0.12-1.33-0.16-2-0.14l-62.23,2.62l-16.8-68.38c-0.36-1.49-1-2.9-1.83-4.18 c-0.42-0.64-0.88-1.25-1.38-1.81l0,0l0,0c-0.5-0.57-1.05-1.09-1.63-1.58c-1.16-0.97-2.45-1.74-3.8-2.28 c-0.68-0.27-1.37-0.48-2.07-0.62l0,0h0c-0.7-0.14-1.41-0.21-2.11-0.21L111.91,7.4c-0.75,0-1.46,0.08-2.13,0.23l-0.01,0l-0.01,0 c-0.67,0.15-1.31,0.37-1.89,0.65c-1.18,0.57-2.17,1.39-2.94,2.4c-0.76,1.01-1.3,2.22-1.55,3.56c-0.13,0.67-0.19,1.37-0.17,2.1l0,0 l0,0c0.02,0.73,0.11,1.48,0.28,2.26l15.99,71.18L47.76,92.8c-1.64,0.07-3.13,0.47-4.43,1.14c-0.65,0.33-1.25,0.73-1.79,1.19 l-0.01,0.01l-0.01,0.01c-0.54,0.46-1.03,0.97-1.46,1.54c-0.86,1.14-1.47,2.48-1.78,3.95c-0.16,0.74-0.24,1.5-0.23,2.3l0,0v0 c0,0.79,0.08,1.61,0.25,2.45l15.09,73.99c0.18,0.87,0.43,1.7,0.76,2.5l0,0.01l0.01,0.01c0.33,0.8,0.73,1.57,1.18,2.29 c0.46,0.73,0.98,1.41,1.55,2.04l0,0l0.01,0c0.57,0.63,1.19,1.21,1.86,1.73c1.33,1.05,2.82,1.86,4.4,2.37 c1.57,0.51,3.23,0.73,4.89,0.59l72.73-6.28l17.34,77.22c0.19,0.86,0.46,1.69,0.79,2.49l0.01,0.03l0.01,0.03 c0.33,0.79,0.73,1.55,1.18,2.26c0.46,0.72,0.97,1.39,1.53,2.01l0,0.01l0.01,0c0.56,0.62,1.16,1.18,1.8,1.69 c0.64,0.5,1.31,0.94,2.01,1.32l0.01,0.01l0.02,0.01c0.7,0.37,1.43,0.68,2.17,0.91c0.75,0.23,1.51,0.39,2.28,0.46l0.01,0h0.01 c0.77,0.07,1.55,0.06,2.32-0.04l65.56-8.46c0.73-0.09,1.42-0.27,2.06-0.52l0.01,0l0.01-0.01c0.64-0.25,1.24-0.57,1.8-0.96 c0.55-0.39,1.05-0.84,1.51-1.34l0.01-0.01l0.01-0.02c0.45-0.5,0.84-1.06,1.18-1.66c0.68-1.22,1.13-2.62,1.31-4.13 c0.17-1.51,0.08-3.13-0.33-4.8l-18.17-73.96l62.89-5.43c1.34-0.12,2.54-0.54,3.56-1.21c1.01-0.67,1.84-1.58,2.45-2.67 c0.3-0.54,0.55-1.13,0.74-1.75l0-0.01l0-0.01c0.19-0.62,0.32-1.28,0.39-1.96C297.36,163.46,297.37,162.75,297.3,162.01z"/><g id="Icons"><path fill="#D07500" d="M121.06,162.6l-9.77-49.85l-48.71,3.04l9.77,50.87L121.06,162.6z M105.48,120.28l7.03,35.86L78.16,159 l-7.02-36.58L105.48,120.28z"/><path fill="#D07500" d="M276.76,129.08c-1.52-14.43-14.49-26.17-28.92-26.17c-6.93,0-13.16,2.69-17.55,7.56 c-4.43,4.92-6.46,11.47-5.73,18.45c1.52,14.43,14.49,26.17,28.92,26.17c6.93,0,13.16-2.69,17.55-7.56 C275.46,142.61,277.49,136.06,276.76,129.08z M265.76,142.79c-3.03,3.36-7.39,5.22-12.28,5.22c-10.73,0-20.74-9.08-21.87-19.82 c-0.52-4.96,0.88-9.57,3.94-12.97c3.03-3.36,7.39-5.22,12.28-5.22c10.73,0,20.74,9.08,21.87,19.82 C270.23,134.78,268.83,139.38,265.76,142.79z"/><polygon fill="#D07500" points="217.43,244.48 221.83,238.61 201.19,223.7 216.11,203.03 210.24,198.63 195.33,219.29 172.37,202.07 167.97,207.94 190.91,225.14 173.71,248.09 179.58,252.49 196.77,229.56"/><path fill="#D07500" d="M150.83,17.87l-22.15,53.59l57.61-3.32L150.83,17.87z M175.61,62.56l-35.54,1.26l12.33-32.73L175.61,62.56 z"/></g></g></svg>